<svg width="639" height="302" viewBox="0 0 639 302" fill="none" xmlns="http://www.w3.org/2000/svg">
<g filter="url(#filter0_d)">
<path d="M336.413 158.539L342.319 157.478L345.764 156.858L348.224 156.416L351.177 155.885L353.145 155.531" stroke="#FD7900" stroke-width="3"/>
</g>
<g filter="url(#filter1_d)">
<path d="M129.581 206.09L123.802 216.793C123.587 217.192 123.513 217.651 123.594 218.097L123.768 219.065C123.805 219.273 123.92 219.459 124.09 219.585V219.585C124.274 219.722 124.507 219.777 124.734 219.736L125.043 219.681C125.218 219.649 125.386 219.588 125.54 219.5L126.369 219.026C126.53 218.934 126.676 218.821 126.806 218.689L127.825 217.648L129.359 216.438C129.455 216.362 129.545 216.277 129.626 216.184L130.632 215.033C130.931 214.691 131.337 214.461 131.784 214.381L132.324 214.284C133.003 214.162 133.696 214.398 134.159 214.909L134.188 214.94C134.463 215.243 134.824 215.455 135.223 215.546L137.109 215.979L139.361 216.495C139.525 216.532 139.693 216.549 139.861 216.545L142.801 216.466C142.898 216.463 142.994 216.468 143.09 216.479L146.077 216.833C146.274 216.856 146.472 216.85 146.667 216.815L148.694 216.451L150.387 216.147C150.795 216.073 151.171 215.874 151.462 215.577L152.23 214.793L154.488 213.012C154.66 212.877 154.809 212.714 154.928 212.53L156.444 210.193C156.563 210.009 156.711 209.846 156.883 209.711L158.157 208.706C158.254 208.63 158.343 208.545 158.424 208.452L161.482 204.954L162.884 203.35C163.009 203.208 163.112 203.048 163.192 202.877L163.964 201.216C164.059 201.01 164.19 200.822 164.348 200.66L164.539 200.465C165.026 199.968 165.737 199.76 166.415 199.915L167.423 200.146C167.686 200.207 167.959 200.213 168.224 200.165L170.143 199.82L174.32 199.069L176.177 198.736L179.89 198.068L182.211 197.651L183.666 197.389C183.931 197.342 184.184 197.241 184.41 197.093L185.984 196.059C186.134 195.96 186.302 195.893 186.478 195.862L186.575 195.844C187.594 195.661 188.395 196.701 187.959 197.639V197.639L187.012 200.365L186.446 201.778C186.383 201.936 186.34 202.102 186.318 202.272L186.191 203.282C186.166 203.483 186.171 203.686 186.207 203.885L186.42 205.07L186.776 207.05L186.811 207.244C186.847 207.444 186.913 207.636 187.006 207.815L187.056 207.91C187.39 208.55 188.043 208.961 188.764 208.984L189.527 209.009C189.842 209.019 190.155 208.954 190.44 208.821L191.537 208.307C191.694 208.233 191.861 208.18 192.032 208.149L192.674 208.033C192.997 207.975 193.301 207.839 193.559 207.635L193.613 207.593C193.871 207.389 194.175 207.253 194.498 207.195L195.01 207.103C195.554 207.005 196.033 206.686 196.334 206.223L196.724 205.621C196.898 205.354 197.133 205.131 197.409 204.973L199.466 203.797C199.552 203.748 199.634 203.693 199.712 203.631L201.274 202.4L204.256 200.33L207.55 198.273C207.652 198.21 207.747 198.137 207.836 198.057L214.66 191.849C214.689 191.823 214.721 191.8 214.755 191.78V191.78C215.189 191.532 215.698 191.955 215.534 192.426L215.101 193.671C215.074 193.75 215.037 193.825 214.992 193.894L214.27 195.007C214.051 195.344 213.939 195.74 213.948 196.141L214.004 198.578L213.989 200.578C213.986 200.944 214.083 201.302 214.27 201.616L214.883 202.645C215.184 203.152 215.694 203.5 216.275 203.596L217.981 203.878C218.206 203.915 218.436 203.913 218.661 203.873L220.014 203.63C220.422 203.556 220.798 203.357 221.089 203.06L221.706 202.43C221.806 202.328 221.917 202.237 222.037 202.158L223.673 201.084C223.889 200.942 224.075 200.76 224.221 200.548L229.15 193.404C229.682 192.634 230.889 192.995 230.91 193.931V193.931C230.911 193.981 230.916 194.03 230.925 194.079L231.227 195.758C231.254 195.909 231.298 196.057 231.359 196.198L231.728 197.051C231.957 197.579 232.402 197.983 232.95 198.16L233.647 198.385C233.959 198.486 234.291 198.508 234.614 198.45L235.515 198.288L237.836 197.871L240.824 197.334C241.292 197.249 241.715 197.001 242.017 196.633L243.411 194.932C243.48 194.848 243.555 194.77 243.637 194.698L252.057 187.292C253.332 186.171 255.305 187.288 254.999 188.957V188.957C254.973 189.1 254.965 189.244 254.973 189.389L255.208 193.215L255.564 195.195L255.742 196.185L256.415 205.261L256.549 211.14C256.553 211.292 256.539 211.443 256.508 211.592L255.832 214.856C255.801 215.007 255.752 215.154 255.687 215.294L254.748 217.314L253.998 218.471L253.344 219.479C253.043 219.943 252.564 220.261 252.02 220.359L250.551 220.623L250.149 220.696C249.602 220.794 249.079 220.43 248.981 219.884V219.884L248.854 219.177C248.764 218.677 248.868 218.161 249.144 217.735L249.355 217.41C249.428 217.298 249.511 217.194 249.604 217.099L250.679 216.001L253.019 213.026L255.359 210.05L287.781 173.255C287.922 173.095 288.036 172.913 288.12 172.717L290.297 167.61C290.334 167.523 290.365 167.433 290.39 167.341L291.212 164.259L292.09 161.732C292.136 161.6 292.168 161.464 292.186 161.325L292.33 160.174C292.348 160.035 292.38 159.899 292.426 159.767L293.235 157.439C293.281 157.306 293.313 157.17 293.33 157.031L293.699 154.103L294.379 149.893L294.68 146.319C294.683 146.28 294.684 146.242 294.681 146.203L294.609 145.029C294.572 144.413 293.715 144.295 293.512 144.878V144.878C293.497 144.921 293.477 144.962 293.452 145L292.561 146.374C292.431 146.575 292.337 146.798 292.286 147.032L291.308 151.467L289.833 156.194C289.803 156.291 289.78 156.389 289.765 156.489L288.91 162.118L287.854 166.906L282.792 190.743C282.719 191.085 282.917 191.426 283.249 191.534V191.534C283.511 191.618 283.798 191.537 283.976 191.328L294.142 179.443C294.905 178.551 296.267 178.504 297.089 179.341L300.144 182.451C300.216 182.525 300.294 182.593 300.377 182.655L301.359 183.385L304.125 185.443L304.362 185.619C304.57 185.775 304.807 185.888 305.059 185.952L307.948 186.692C308.111 186.734 308.279 186.755 308.448 186.755L310.892 186.75C311.009 186.75 311.126 186.739 311.242 186.718L314.317 186.165L316.809 185.718C317.003 185.683 317.192 185.619 317.367 185.529L320.174 184.091L323.156 182.022L327.353 178.712L331.431 175.497C331.51 175.434 331.584 175.366 331.653 175.292L335.569 171.103V171.103C336.188 170.53 337.176 171.105 336.983 171.927L335.994 176.137L334.258 185.136L332.254 192.65L330.448 198.595L328.889 208.584L326.758 220.72L332.727 199.147C332.813 198.835 332.973 198.55 333.193 198.314L336.877 194.374L341.092 189.112C341.152 189.038 341.217 188.968 341.286 188.903L352.666 178.249L366.274 168.649L370.935 164.441C371.124 164.271 371.344 164.138 371.583 164.05L373.917 163.187L375.154 162.607C375.501 162.445 375.887 162.385 376.266 162.436L380.284 162.968C380.49 162.995 380.698 162.99 380.901 162.954L386.164 162.008L394.856 160.445C394.941 160.43 395.024 160.408 395.106 160.38L396.152 160.023C397.003 159.733 397.833 160.508 397.602 161.377V161.377C397.581 161.452 397.569 161.529 397.565 161.607L397.463 163.553L397.18 166.923C397.165 167.097 397.173 167.272 397.204 167.444L397.501 169.095C397.567 169.464 397.736 169.807 397.988 170.085L398.053 170.157C398.516 170.668 399.21 170.904 399.889 170.782L400.19 170.728L402.047 170.394L403.275 170.173C403.684 170.1 404.06 169.901 404.35 169.604L404.829 169.116C405.02 168.921 405.249 168.767 405.501 168.664L407.157 167.987C407.286 167.934 407.408 167.869 407.523 167.791L412.475 164.431L425.141 153.364C425.399 153.138 425.805 153.28 425.865 153.618V153.618C425.89 153.758 425.846 153.902 425.746 154.004L421.769 158.065C421.316 158.528 421.115 159.181 421.23 159.818L421.48 161.208C421.546 161.577 421.715 161.92 421.967 162.198L422.599 162.895C422.709 163.017 422.875 163.073 423.037 163.044V163.044C423.167 163.02 423.301 163.052 423.407 163.131L424.232 163.745C424.309 163.802 424.389 163.853 424.473 163.898L426.076 164.767C426.336 164.908 426.624 164.99 426.919 165.006L430.593 165.208C430.748 165.216 430.903 165.207 431.056 165.179L432.683 164.887L435.004 164.469L437.995 163.932C438.166 163.901 438.333 163.848 438.49 163.774L441.789 162.228L444.063 161.388C444.341 161.285 444.592 161.122 444.799 160.911L445.505 160.191C445.634 160.059 445.78 159.945 445.941 159.854L448.306 158.501L451.592 156.449C451.699 156.382 451.799 156.305 451.892 156.22L455.861 152.544L456.061 152.307C456.45 151.845 457.173 152.344 456.878 152.872V152.872L455.621 155.374C455.518 155.577 455.452 155.796 455.423 156.022L455.269 157.249L455.197 158.624C455.174 159.054 455.368 159.467 455.714 159.724V159.724L456.167 160.061C456.584 160.371 457.11 160.495 457.622 160.403V160.403C458.006 160.334 458.36 160.147 458.633 159.868L459.427 159.057L460.844 157.436C460.959 157.305 461.056 157.159 461.133 157.002L478.794 121.036C478.869 120.884 478.923 120.725 478.958 120.56L480.399 113.601C480.43 113.452 480.444 113.301 480.44 113.149L480.379 110.479C480.377 110.376 480.367 110.273 480.348 110.171L480.16 109.121C480.072 108.634 479.754 108.219 479.305 108.008V108.008C478.781 107.761 478.162 107.831 477.706 108.19L476.686 108.995C476.209 109.371 475.929 109.944 475.924 110.551L475.913 111.975C475.912 112.09 475.901 112.206 475.881 112.32L473.495 125.358L473.1 128.495L472.706 131.631L470.606 151.937L470.188 154.222C470.145 154.458 470.144 154.7 470.187 154.936L470.296 155.542C470.456 156.433 471.196 157.106 472.099 157.181L472.252 157.194C472.426 157.208 472.6 157.2 472.771 157.169L473.566 157.026C473.791 156.986 474.007 156.907 474.205 156.794L475.08 156.293C475.166 156.244 475.248 156.189 475.326 156.128L477.611 154.326C477.689 154.265 477.771 154.209 477.857 154.16L481.638 151.998L484.62 149.929L487.514 147.365L490.871 144.717L492.757 142.97C492.869 142.867 492.992 142.777 493.124 142.702L495.47 141.36C495.511 141.336 495.556 141.32 495.603 141.312V141.312C495.948 141.25 496.211 141.615 496.044 141.922L494.387 144.96C494.328 145.069 494.279 145.182 494.241 145.3L493.065 148.922L492.515 151.573C492.378 152.237 492.586 152.925 493.067 153.401L493.305 153.636C493.768 154.094 494.425 154.298 495.066 154.183L495.272 154.146C495.681 154.072 496.056 153.873 496.347 153.577L497.115 152.793L498.156 151.73C498.271 151.612 498.371 151.48 498.454 151.338L509.237 132.853C509.291 132.761 509.338 132.664 509.376 132.564L516.441 114.214C516.483 114.104 516.516 113.991 516.538 113.875L518.171 105.416C518.217 105.174 518.219 104.926 518.175 104.683L517.974 103.565L517.841 102.823C517.759 102.366 517.431 101.991 516.989 101.848V101.848C516.793 101.785 516.584 101.771 516.381 101.807L516.101 101.858C515.876 101.898 515.66 101.977 515.462 102.09L514.879 102.423C514.602 102.581 514.368 102.804 514.194 103.071L513.999 103.372C513.808 103.666 513.698 104.005 513.68 104.355L513.599 105.884L513.152 108.329C513.128 108.46 513.091 108.589 513.041 108.712L512.455 110.178L511.596 113.398L511.399 114.967L511.004 118.104L510.235 121.819L509.751 124.461L509.446 128.092L509.512 130.972C509.514 131.088 509.507 131.203 509.489 131.318L508.638 136.925L508.046 141.63L507.829 145.757L508.059 149.509C508.071 149.702 508.116 149.89 508.193 150.067V150.067C508.574 150.949 509.622 151.325 510.477 150.887L511.969 150.122L514.112 148.715L517.352 146.16C517.43 146.098 517.512 146.043 517.598 145.994L522.554 143.16C522.64 143.111 522.722 143.056 522.8 142.994L526.88 139.777L530.238 137.129L531.916 135.806V135.806C532.235 135.554 532.7 135.804 532.666 136.209L532.45 138.776L532.094 141.609C532.069 141.81 532.074 142.014 532.11 142.213L532.263 143.067C532.355 143.575 532.718 143.991 533.209 144.15V144.15C533.355 144.196 533.492 144.267 533.614 144.358L533.652 144.386C534.189 144.785 534.911 144.829 535.491 144.497L535.839 144.298L537.735 143.523C537.957 143.432 538.161 143.302 538.337 143.139L540.125 141.484L543.182 137.986C543.263 137.893 543.353 137.808 543.45 137.731L544.812 136.657C544.926 136.568 545.029 136.466 545.121 136.354L546.948 134.125V134.125C547.332 133.733 547.994 134.06 547.916 134.603L544.543 158.063L542.516 182.164C542.487 182.509 542.938 182.663 543.126 182.373V182.373C543.145 182.344 543.16 182.312 543.169 182.278L544.014 179.109L545.731 172.668L547.073 166.806L548.79 160.365L550.113 157.062L552.186 152.601L555.188 147.974L558.1 142.851L560.492 138.567C560.589 138.395 560.71 138.237 560.852 138.101L563.906 135.165L567.735 130.493C567.802 130.411 567.876 130.335 567.955 130.264L570.309 128.178C570.584 127.935 570.921 127.772 571.282 127.707L571.658 127.639" stroke="#FD7900" stroke-width="3"/>
</g>
<g filter="url(#filter2_d)">
<path d="M139.884 190.015C139.884 190.015 123.53 191.373 108.754 192.056M108.754 192.056C101.065 192.111 96.0513 192.168 88.2396 192.299C86.6273 192.326 85.7078 194.153 86.6477 195.463L104.44 220.266C104.651 220.559 104.937 220.79 105.268 220.934L105.351 220.97C106.009 221.256 106.77 221.168 107.345 220.738L107.578 220.565C107.982 220.263 108.257 219.819 108.348 219.322L108.943 216.069C108.965 215.952 108.975 215.833 108.976 215.713L108.986 210.302L108.998 204.712L108.704 194.605L108.754 192.056ZM108.754 192.056C108.489 190.579 107.25 183.69 107.25 183.69" stroke="#FD7900" stroke-width="3"/>
</g>
<defs>
<filter id="filter0_d" x="332.148" y="152.055" width="29.2626" height="17.9606" filterUnits="userSpaceOnUse" color-interpolation-filters="sRGB">
<feFlood flood-opacity="0" result="BackgroundImageFix"/>
<feColorMatrix in="SourceAlpha" type="matrix" values="0 0 0 0 0 0 0 0 0 0 0 0 0 0 0 0 0 0 127 0"/>
<feOffset dx="2" dy="4"/>
<feGaussianBlur stdDeviation="3"/>
<feColorMatrix type="matrix" values="0 0 0 0 0 0 0 0 0 0 0 0 0 0 0 0 0 0 0.75 0"/>
<feBlend mode="normal" in2="BackgroundImageFix" result="effect1_dropShadow"/>
<feBlend mode="normal" in="SourceGraphic" in2="effect1_dropShadow" result="shape"/>
</filter>
<filter id="filter1_d" x="118.062" y="98.2876" width="461.861" height="133.924" filterUnits="userSpaceOnUse" color-interpolation-filters="sRGB">
<feFlood flood-opacity="0" result="BackgroundImageFix"/>
<feColorMatrix in="SourceAlpha" type="matrix" values="0 0 0 0 0 0 0 0 0 0 0 0 0 0 0 0 0 0 127 0"/>
<feOffset dx="2" dy="4"/>
<feGaussianBlur stdDeviation="3"/>
<feColorMatrix type="matrix" values="0 0 0 0 0 0 0 0 0 0 0 0 0 0 0 0 0 0 0.75 0"/>
<feBlend mode="normal" in2="BackgroundImageFix" result="effect1_dropShadow"/>
<feBlend mode="normal" in="SourceGraphic" in2="effect1_dropShadow" result="shape"/>
</filter>
<filter id="filter2_d" x="80.7672" y="181.424" width="67.2411" height="51.2117" filterUnits="userSpaceOnUse" color-interpolation-filters="sRGB">
<feFlood flood-opacity="0" result="BackgroundImageFix"/>
<feColorMatrix in="SourceAlpha" type="matrix" values="0 0 0 0 0 0 0 0 0 0 0 0 0 0 0 0 0 0 127 0"/>
<feOffset dx="2" dy="4"/>
<feGaussianBlur stdDeviation="3"/>
<feColorMatrix type="matrix" values="0 0 0 0 0 0 0 0 0 0 0 0 0 0 0 0 0 0 0.75 0"/>
<feBlend mode="normal" in2="BackgroundImageFix" result="effect1_dropShadow"/>
<feBlend mode="normal" in="SourceGraphic" in2="effect1_dropShadow" result="shape"/>
</filter>
</defs>
</svg>
